<?xml version="1.0" encoding="UTF-8" standalone="no"?>
<!DOCTYPE svg PUBLIC "-//W3C//DTD SVG 1.1//EN" "http://www.w3.org/Graphics/SVG/1.1/DTD/svg11.dtd">
<svg xmlns="http://www.w3.org/2000/svg" version="1.1" viewBox="0.00 0.00 559.00 447.00">
<path fill="#000000" d="
  M 163.67 135.55
  C 155.32 115.95 132.89 107.57 112.55 105.78
  Q 112.26 105.76 112.26 105.46
  L 112.24 97.22
  A 0.29 0.29 0.0 0 1 112.53 96.93
  L 205.45 96.91
  A 1.19 1.18 78.3 0 1 206.54 97.63
  Q 250.94 202.75 295.43 307.27
  Q 298.64 314.83 307.50 321.49
  C 325.74 335.20 354.36 334.71 374.76 327.70
  C 402.00 318.35 418.01 291.62 426.61 265.90
  Q 427.17 264.22 428.95 264.24
  L 435.44 264.30
  Q 437.11 264.32 436.84 265.96
  L 423.17 348.98
  A 0.92 0.88 4.4 0 1 422.27 349.72
  L 209.74 349.72
  Q 208.50 349.72 208.50 348.49
  L 208.50 341.30
  A 1.19 1.18 -0.2 0 1 209.68 340.12
  Q 219.28 340.07 226.26 337.27
  C 233.44 334.38 240.90 327.31 239.70 318.76
  Q 239.20 315.18 237.82 311.84
  C 225.71 282.56 213.09 253.52 201.02 224.24
  C 194.81 209.18 188.21 194.30 182.02 179.23
  Q 174.83 161.73 163.67 135.55
  Z"
/>
<path fill="#000000" d="
  M 356.45 128.91
  A 0.37 0.37 0.0 0 0 355.79 128.95
  L 294.71 276.11
  Q 294.19 277.38 293.66 276.11
  L 286.06 258.00
  Q 285.82 257.44 286.06 256.87
  L 353.38 97.84
  Q 353.78 96.92 354.78 96.92
  L 446.48 96.96
  A 0.28 0.27 0.0 0 1 446.76 97.23
  L 446.72 105.83
  Q 446.72 106.09 446.46 106.11
  C 435.15 106.69 421.77 110.02 417.57 121.76
  Q 415.11 128.65 415.04 136.50
  Q 414.55 200.00 414.95 263.50
  C 414.96 265.37 414.85 266.74 414.18 268.55
  Q 408.99 282.51 400.61 294.81
  C 389.58 310.99 374.50 318.52 355.57 322.13
  A 0.47 0.47 0.0 0 1 355.02 321.58
  Q 356.29 315.06 356.35 308.25
  Q 357.00 219.38 356.82 130.50
  Q 356.82 129.59 356.45 128.91
  Z"
/>
<path fill="#000000" d="
  M 165.35 325.45
  C 169.58 338.70 185.01 340.24 196.47 340.16
  Q 197.76 340.15 197.76 341.44
  L 197.74 348.52
  A 1.26 1.26 0.0 0 1 196.48 349.78
  L 113.03 349.77
  Q 111.79 349.77 111.77 348.53
  L 111.66 341.31
  A 1.26 1.25 89.5 0 1 112.90 340.04
  C 132.93 339.86 144.78 331.98 145.22 310.74
  Q 145.71 287.63 145.73 264.50
  Q 145.78 196.91 145.78 129.51
  A 0.28 0.28 0.0 0 1 146.24 129.29
  Q 150.94 132.99 153.08 138.23
  Q 157.48 148.95 161.65 158.99
  A 7.57 7.36 -57.0 0 1 162.22 161.86
  Q 162.29 233.93 162.35 306.25
  Q 162.35 316.10 165.35 325.45
  Z"
/>
<path fill="#000000" d="
  M 432.54 338.86
  L 446.03 340.51
  A 0.55 0.55 0.0 0 1 446.51 341.07
  L 446.33 349.10
  A 0.55 0.55 0.0 0 1 445.79 349.63
  L 430.80 349.76
  A 0.55 0.55 0.0 0 1 430.25 349.12
  L 431.93 339.32
  A 0.55 0.55 0.0 0 1 432.54 338.86
  Z"
/>
</svg>
